<svg width="56" height="57" viewBox="0 0 56 57" fill="none" xmlns="http://www.w3.org/2000/svg">
<path d="M52.6938 5.13487C46.8239 -0.791174 34.5965 2.9959 28.0396 6.17675C14.6511 12.601 1.56708 27.4069 0.070529 42.4693C-0.27483 46.4589 0.599089 50.8988 3.63181 53.7741C6.59892 56.6666 11.018 57.3587 14.9853 56.8408C27.521 55.0504 40.0405 44.4844 47.2423 34.3C46.8351 33.549 46.3993 32.7967 45.9376 32.0432C43.8407 34.5626 41.573 36.9004 39.3585 39.0185C32.7075 45.1716 23.6997 51.3394 14.5038 52.3015C11.6518 52.542 8.34923 52.0843 6.62863 49.5943C4.57505 46.5043 5.51952 42.0975 6.68433 38.7767C10.8398 27.7297 20.9381 17.0091 30.29 9.86074C34.7673 6.58049 39.9068 3.53954 45.6084 3.31251C47.9986 3.24379 50.4978 3.89297 52.2506 5.57297C54.6681 7.86289 55.1583 11.4291 54.7449 14.5854C53.9638 19.9089 51.3359 24.9231 47.9875 29.4404C48.4009 30.0834 48.797 30.7265 49.1734 31.3695C53.5739 24.1353 58.7097 11.4806 52.6938 5.13487Z" fill="#AF63FF"/>
<path d="M51.6417 27.7974C47.3897 19.0869 39.4959 10.5065 30.2777 5.21733C28.4568 6.06653 25.4377 7.73304 23.5834 8.77369C32.9675 13.6382 41.7624 22.1033 47.9269 30.0284C51.2344 34.4671 54.303 39.5624 54.532 45.2148C54.6014 47.5844 53.9453 50.0621 52.2507 51.7998C49.9421 54.1965 46.3437 54.6824 43.1612 54.2726C37.7394 53.4909 32.6346 50.8426 28.0446 47.4752C27.3712 47.879 26.6966 48.2618 26.0232 48.6251C33.2832 53.0135 46.2323 58.2609 52.6938 52.2391C58.6714 46.4186 54.8514 34.2978 51.6417 27.7974ZM18.5157 39.0187C12.3091 32.4251 6.08774 23.4937 5.11603 14.3782C4.87465 11.5508 5.33513 8.27668 7.84796 6.5709C10.9648 4.53501 15.4099 5.47135 18.7583 6.62613C19.1148 6.75743 19.4701 6.89488 19.8253 7.03969C20.8837 6.43469 24.2036 4.55465 26.6236 3.33115C22.8729 1.60451 18.9626 0.453418 15.0349 0.0693108C11.0094 -0.273072 6.53213 0.593316 3.63186 3.59868C0.713019 6.54022 0.0148745 10.9213 0.538483 14.8556C2.33088 27.19 12.8402 39.5072 23.0425 46.6702C23.8248 46.2824 24.6121 45.8639 25.4006 45.4172C22.9162 43.3728 20.6089 41.17 18.5157 39.0187Z" fill="#AF63FF"/>
</svg>
